<?xml version="1.0" encoding="UTF-8" standalone="no"?>
<!DOCTYPE svg PUBLIC "-//W3C//DTD SVG 1.1//EN" "http://www.w3.org/Graphics/SVG/1.1/DTD/svg11.dtd">
<svg width="100%" height="100%" viewBox="0 0 35 23" version="1.1" xmlns="http://www.w3.org/2000/svg" xmlns:xlink="http://www.w3.org/1999/xlink" xml:space="preserve" xmlns:serif="http://www.serif.com/" style="fill-rule:evenodd;clip-rule:evenodd;stroke-linejoin:round;stroke-miterlimit:2;">
    <g transform="matrix(1,0,0,1,-123.794,-277.97)">
        <g transform="matrix(0.110149,0,0,0.110149,110.158,266.955)">
            <path d="M216.94,160.006C219.823,156.51 221.769,151.652 221.24,146.81C217.074,146.981 212.036,149.594 209.069,153.077C206.382,156.168 204.057,161.118 204.699,165.864C209.332,166.222 214.057,163.501 216.94,160.006ZM228.91,190.73C228.818,180.259 237.452,175.222 237.852,174.972C232.981,167.889 225.427,166.906 222.736,166.797C216.298,166.16 210.161,170.589 206.907,170.589C203.641,170.589 198.616,166.897 193.266,167.01C186.249,167.109 179.779,171.089 176.167,177.368C168.896,190.046 174.321,208.771 181.42,219.025C184.896,224.045 189.028,229.686 194.474,229.482C199.716,229.278 201.682,226.091 208.016,226.091C214.336,226.083 216.124,229.474 221.644,229.378C227.277,229.257 230.852,224.253 234.306,219.208C238.277,213.395 239.923,207.75 240.006,207.467C239.893,207.391 229.035,203.25 228.91,190.73ZM295.974,160.001C293.874,157.977 291.166,156.402 287.925,155.318C284.712,154.248 280.854,153.706 276.458,153.706C273.643,153.693 270.829,153.839 268.03,154.144C265.696,154.404 263.37,154.731 261.055,155.123L260.376,155.24L260.376,228.849L267.096,228.849L267.096,197.838C269.359,198.225 271.95,198.429 274.808,198.429C278.612,198.429 282.175,197.942 285.4,196.987C288.502,196.106 291.392,194.598 293.891,192.559C296.298,190.547 298.234,188.031 299.562,185.188C300.937,182.272 301.636,178.842 301.636,174.984C301.636,171.793 301.132,168.922 300.149,166.452C299.199,164.046 297.779,161.853 295.974,160.001ZM289.799,188.117C286.35,191.009 281.467,192.475 275.271,192.475C273.567,192.475 271.955,192.4 270.475,192.263C269.338,192.16 268.209,191.97 267.1,191.696L267.1,160.394C267.988,160.231 269.088,160.077 270.379,159.939C272.017,159.764 273.987,159.676 276.246,159.676C278.839,159.651 281.423,159.986 283.925,160.673C286.056,161.259 288.059,162.24 289.829,163.564C291.441,164.814 292.708,166.439 293.587,168.397C294.474,170.38 294.92,172.747 294.92,175.426C294.916,180.988 293.191,185.259 289.799,188.117ZM341.806,221.958C341.731,219.874 341.702,217.783 341.702,215.699L341.702,195.237C341.702,192.812 341.455,190.338 340.976,187.879C340.515,185.434 339.568,183.105 338.193,181.03C336.827,178.98 334.914,177.289 332.522,175.997C330.131,174.709 327.023,174.06 323.278,174.06C320.544,174.06 317.874,174.414 315.353,175.118C312.705,175.879 310.202,177.07 307.94,178.643L307.394,179.022L309.665,184.334L310.486,183.78C312.278,182.577 314.238,181.644 316.303,181.013C318.389,180.361 320.562,180.026 322.748,180.022C325.548,180.022 327.786,180.53 329.381,181.53C331.002,182.542 332.222,183.797 333.01,185.263C333.831,186.775 334.368,188.384 334.606,190.054C334.86,191.792 334.981,193.346 334.981,194.679L334.981,195.271C325.019,195.225 317.24,196.883 312.074,200.213C306.653,203.704 303.903,208.675 303.903,214.983C303.903,216.799 304.228,218.629 304.87,220.437C305.519,222.266 306.507,223.903 307.798,225.303C309.099,226.719 310.778,227.874 312.786,228.737C314.786,229.607 317.14,230.045 319.769,230.045C323.491,230.107 327.155,229.105 330.327,227.157C331.711,226.303 332.939,225.333 333.99,224.286C334.437,223.837 334.864,223.367 335.269,222.878L335.527,222.878L336.144,228.853L342.622,228.853L342.443,227.894C342.087,225.934 341.874,223.949 341.806,221.958ZM334.981,211.475C334.981,212.191 334.81,213.174 334.485,214.353C334.05,215.629 333.441,216.839 332.677,217.949C330.975,220.441 328.502,222.307 325.64,223.261C323.902,223.833 322.081,224.11 320.252,224.083C319.046,224.083 317.849,223.879 316.711,223.478C315.606,223.094 314.592,222.487 313.732,221.695C312.83,220.842 312.118,219.81 311.64,218.666C311.111,217.445 310.844,215.933 310.844,214.174C310.844,211.295 311.619,208.958 313.14,207.25C314.778,205.429 316.834,204.035 319.132,203.187C321.734,202.209 324.458,201.588 327.227,201.342C329.804,201.093 332.392,200.981 334.981,201.004L334.981,211.475ZM387.416,175.255L374.875,209.35C374.092,211.408 373.362,213.483 372.696,215.504C372.371,216.512 372.062,217.466 371.758,218.374L371.521,218.374C371.208,217.379 370.888,216.386 370.562,215.395C369.913,213.395 369.213,211.433 368.496,209.562L355.084,175.255L347.914,175.255L367.1,224.578C367.604,225.766 367.679,226.312 367.679,226.532C367.679,226.599 367.655,227.003 367.092,228.503C366.044,231.179 364.677,233.72 363.022,236.069C361.484,238.161 360.076,239.861 358.821,241.115C357.363,242.573 355.859,243.769 354.33,244.673C352.768,245.594 351.343,246.34 350.08,246.903L349.356,247.227L351.693,252.906L352.435,252.631C353.042,252.402 354.185,251.881 355.917,251.036C357.667,250.173 359.605,248.807 361.671,246.956C363.503,245.344 365.129,243.512 366.513,241.502C367.929,239.469 369.346,237.082 370.738,234.432C372.112,231.786 373.487,228.778 374.829,225.482C376.171,222.17 377.612,218.466 379.1,214.487L394.595,175.255L387.416,175.255ZM408.228,104.167L411.403,104.17C412.274,104.175 413.144,104.187 414.019,104.208C415.606,104.25 417.473,104.337 419.269,104.662C420.932,104.962 422.34,105.425 423.702,106.116C426.456,107.513 428.694,109.753 430.089,112.507C430.781,113.866 431.24,115.275 431.539,116.941C431.86,118.72 431.952,120.591 431.99,122.187C432.014,123.054 432.027,123.924 432.031,124.803C432.039,125.857 432.039,126.92 432.039,127.978L432.039,272.022C432.039,273.08 432.039,274.138 432.031,275.209C432.028,276.077 432.013,276.946 431.99,277.813C431.948,279.409 431.86,281.28 431.539,283.071C431.28,284.609 430.791,286.099 430.089,287.493C428.686,290.245 426.446,292.484 423.694,293.888C422.3,294.591 420.809,295.081 419.269,295.342C417.536,295.62 415.786,295.77 414.032,295.792C413.157,295.813 412.282,295.825 411.394,295.825C410.34,295.833 409.278,295.833 408.224,295.833L151.734,295.833C150.688,295.833 149.643,295.833 148.585,295.825C147.71,295.825 146.835,295.813 145.981,295.792C144.222,295.769 142.467,295.618 140.731,295.342C139.186,295.084 137.69,294.592 136.293,293.884C134.924,293.19 133.675,292.281 132.594,291.192C131.508,290.109 130.603,288.86 129.91,287.493C129.205,286.096 128.716,284.601 128.456,283.059C128.173,281.324 128.021,279.571 128.002,277.813C127.981,276.944 127.969,276.074 127.964,275.205L127.961,272.664L127.961,127.341L127.964,124.803C127.969,123.932 127.981,123.062 128.002,122.187C128.044,120.599 128.131,118.733 128.456,116.932C128.714,115.391 129.204,113.898 129.91,112.504C131.308,109.751 133.545,107.514 136.298,106.116C137.692,105.413 139.185,104.924 140.726,104.667C142.464,104.383 144.22,104.231 145.981,104.212C146.851,104.191 147.722,104.179 148.589,104.175L151.772,104.167L408.228,104.167M411.432,100L151.772,100L148.568,100.004C147.668,100.008 146.768,100.021 145.868,100.046C143.9,100.072 141.936,100.245 139.993,100.563C138.05,100.897 136.167,101.517 134.406,102.404C130.875,104.21 128.002,107.084 126.198,110.616C125.309,112.376 124.687,114.26 124.356,116.203C124.035,118.146 123.861,120.109 123.836,122.078C123.815,122.974 123.802,123.874 123.798,124.774L123.794,127.978L123.794,272.022L123.798,275.23C123.802,276.13 123.815,277.03 123.84,277.926C123.894,279.884 124.01,281.859 124.361,283.797C124.711,285.767 125.289,287.596 126.198,289.384C127.994,292.923 130.871,295.8 134.41,297.596C136.197,298.508 138.027,299.083 139.993,299.438C141.931,299.783 143.906,299.9 145.868,299.954C146.768,299.979 147.664,299.992 148.568,299.992C149.635,300 150.705,300 151.772,300L408.228,300C409.295,300 410.365,300 411.432,299.992C412.332,299.987 413.232,299.975 414.132,299.954C416.09,299.9 418.065,299.783 420.007,299.438C421.949,299.103 423.83,298.483 425.589,297.596C429.129,295.801 432.007,292.924 433.802,289.384C434.714,287.596 435.289,285.767 435.639,283.797C435.989,281.859 436.102,279.884 436.156,277.926C436.181,277.026 436.193,276.126 436.197,275.23C436.206,274.159 436.206,273.093 436.206,272.022L436.206,127.978C436.206,126.907 436.206,125.841 436.197,124.77C436.194,123.871 436.18,122.972 436.156,122.074C436.132,120.106 435.959,118.142 435.639,116.199C435.31,114.256 434.69,112.372 433.802,110.612C432.001,107.076 429.126,104.2 425.589,102.4C423.83,101.513 421.949,100.892 420.007,100.558C418.064,100.241 416.1,100.068 414.132,100.042C413.228,100.016 412.327,100.008 411.432,100Z"/>
        </g>
    </g>
</svg>
