<?xml version="1.0" encoding="UTF-8" standalone="no"?>
<!DOCTYPE svg PUBLIC "-//W3C//DTD SVG 1.1//EN" "http://www.w3.org/Graphics/SVG/1.1/DTD/svg11.dtd">
<svg width="100%" height="100%" viewBox="0 0 253 177" version="1.1" xmlns="http://www.w3.org/2000/svg" xmlns:xlink="http://www.w3.org/1999/xlink" xml:space="preserve" xmlns:serif="http://www.serif.com/" style="fill-rule:evenodd;clip-rule:evenodd;stroke-linejoin:round;stroke-miterlimit:2;">
    <g transform="matrix(1,0,0,1,-1152.39,-516.609)">
        <g transform="matrix(4.16667,0,0,4.16667,0,0)">
            <path d="M311.643,125.637C309.441,127.838 309.441,131.406 311.643,133.607L315.851,137.816C316.496,138.46 316.039,139.563 315.127,139.563L282.211,139.563C279.098,139.563 276.574,142.086 276.574,145.198C276.574,148.311 279.098,150.834 282.211,150.834L315.127,150.834C316.039,150.834 316.495,151.937 315.851,152.581L311.643,156.79C309.441,158.99 309.441,162.559 311.643,164.76C313.844,166.961 317.412,166.961 319.613,164.76L335.912,148.46C337.714,146.659 337.714,143.738 335.912,141.937L319.613,125.637C317.412,123.436 313.844,123.436 311.643,125.637Z" style="fill:rgb(220,220,220);fill-rule:nonzero;"/>
        </g>
    </g>
</svg>
