<?xml version="1.0" encoding="UTF-8" standalone="no"?>
<!DOCTYPE svg PUBLIC "-//W3C//DTD SVG 1.1//EN" "http://www.w3.org/Graphics/SVG/1.1/DTD/svg11.dtd">
<svg width="100%" height="100%" viewBox="0 0 264 105" version="1.1" xmlns="http://www.w3.org/2000/svg" xmlns:xlink="http://www.w3.org/1999/xlink" xml:space="preserve" xmlns:serif="http://www.serif.com/" style="fill-rule:evenodd;clip-rule:evenodd;stroke-linejoin:round;stroke-miterlimit:2;">
    <g transform="matrix(1,0,0,1,0,-85.5667)">
        <g transform="matrix(8.03333,0,0,8.03333,0,-1336.33)">
            <path d="M23,178.897C23,177.85 22.15,177 21.103,177L1.897,177C0.85,177 0,177.85 0,178.897L0,188.103C0,189.15 0.85,190 1.897,190L21.103,190C22.15,190 23,189.15 23,188.103L23,178.897ZM22,179.683C22,178.804 21.287,178.091 20.408,178.091L2.592,178.091C1.713,178.091 1,178.804 1,179.683L1,187.408C1,188.287 1.713,189 2.592,189L20.408,189C21.287,189 22,188.287 22,187.408L22,179.683Z" style="fill:rgb(150,150,150);"/>
        </g>
        <g transform="matrix(8.79841,0,0,7.03333,-8.79841,-1154.33)">
            <rect x="1" y="179" width="21" height="3" style="fill:rgb(150,150,150);"/>
        </g>
        <g transform="matrix(8.03333,0,0,5.35735,0,-840.953)">
            <rect x="2" y="184" width="12" height="3" style="fill:rgb(150,150,150);"/>
        </g>
        <g transform="matrix(8.03333,0,0,8.03333,0,-1328.3)">
            <text x="16.948px" y="185.35px" style="font-family:'Arial-BoldMT', 'Arial', sans-serif;font-weight:700;font-size:2px;fill:rgb(150,150,150);">123</text>
        </g>
        <g transform="matrix(1.75283,0,0,1.75283,91.0284,-119.746)">
            <path d="M33.327,145.801C39.327,145.801 44.199,150.673 44.199,156.673C44.199,162.674 39.327,167.545 33.327,167.545C27.326,167.545 22.455,162.674 22.455,156.673C22.455,150.673 27.326,145.801 33.327,145.801ZM33.327,147.437C38.474,147.437 42.654,151.616 42.654,156.764C42.654,161.912 38.474,166.091 33.327,166.091C28.179,166.091 24,161.912 24,156.764C24,151.616 28.179,147.437 33.327,147.437Z" style="fill:rgb(150,150,150);"/>
        </g>
        <g transform="matrix(7.49591,0,0,3.03333,9.09936,-406.333)">
            <rect x="21" y="185" width="5" height="1" style="fill:rgb(150,150,150);"/>
        </g>
        <g transform="matrix(3.41149,0,0,3.41149,113.215,-403.067)">
            <path d="M33.327,145.801C39.327,145.801 44.199,150.673 44.199,156.673C44.199,162.674 39.327,167.545 33.327,167.545C27.326,167.545 22.455,162.674 22.455,156.673C22.455,150.673 27.326,145.801 33.327,145.801ZM33.327,147.437C38.474,147.437 42.654,151.616 42.654,156.764C42.654,161.912 38.474,166.091 33.327,166.091C28.179,166.091 24,161.912 24,156.764C24,151.616 28.179,147.437 33.327,147.437Z" style="fill:rgb(150,150,150);"/>
        </g>
        <g transform="matrix(8.03333,0,0,8.03333,5.49881,-1258.09)">
            <text x="23.837px" y="174.352px" style="font-family:'Arial-BoldMT', 'Arial', sans-serif;font-weight:700;font-size:4.481px;fill:rgb(150,150,150);">cvc</text>
        </g>
    </g>
</svg>
