<?xml version="1.0" encoding="UTF-8" standalone="no"?>
<!DOCTYPE svg PUBLIC "-//W3C//DTD SVG 1.1//EN" "http://www.w3.org/Graphics/SVG/1.1/DTD/svg11.dtd">
<svg width="100%" height="100%" viewBox="0 0 113 113" version="1.1" xmlns="http://www.w3.org/2000/svg" xmlns:xlink="http://www.w3.org/1999/xlink" xml:space="preserve" xmlns:serif="http://www.serif.com/" style="fill-rule:evenodd;clip-rule:evenodd;stroke-linejoin:round;stroke-miterlimit:2;">
    <path d="M56.098,0C87.059,0 112.196,25.137 112.196,56.098C112.196,87.059 87.059,112.196 56.098,112.196C25.137,112.196 0,87.059 0,56.098C0,25.137 25.137,0 56.098,0ZM70.201,58.294L60.191,58.294L60.191,94.966L45.025,94.966L45.025,58.294L37.812,58.294L37.812,45.406L45.025,45.406L45.025,37.066C45.025,31.102 47.858,21.763 60.326,21.763L71.56,21.81L71.56,34.32L63.409,34.32C62.072,34.32 60.192,34.988 60.192,37.833L60.192,45.418L71.526,45.418L70.201,58.294Z" style="fill:rgb(40,40,40);"/>
</svg>
