<?xml version="1.0" encoding="UTF-8" standalone="no"?>
<!DOCTYPE svg PUBLIC "-//W3C//DTD SVG 1.1//EN" "http://www.w3.org/Graphics/SVG/1.1/DTD/svg11.dtd">
<svg width="100%" height="100%" viewBox="0 0 436 174" version="1.1" xmlns="http://www.w3.org/2000/svg" xmlns:xlink="http://www.w3.org/1999/xlink" xml:space="preserve" xmlns:serif="http://www.serif.com/" style="fill-rule:evenodd;clip-rule:evenodd;stroke-linejoin:round;stroke-miterlimit:2;">
    <path d="M206.2,84.57L206.2,135.33L190.1,135.33L190.1,10L232.8,10C243.091,9.785 253.052,13.694 260.45,20.85C267.934,27.582 272.149,37.235 272,47.3C272.214,57.421 267.992,67.146 260.45,73.9C252.983,81.02 243.767,84.577 232.8,84.57L206.2,84.57ZM206.2,25.42L206.2,69.18L233.2,69.18C239.182,69.357 244.97,67.003 249.13,62.7C253.265,58.68 255.6,53.152 255.6,47.385C255.6,41.618 253.265,36.09 249.13,32.07C245.021,27.675 239.215,25.251 233.2,25.42L206.2,25.42Z" style="fill:rgb(95,99,104);fill-rule:nonzero;"/>
    <path d="M309.1,46.78C321,46.78 330.393,49.96 337.28,56.32C344.167,62.68 347.607,71.4 347.6,82.48L347.6,135.33L332.2,135.33L332.2,123.43L331.5,123.43C324.833,133.23 315.967,138.13 304.9,138.13C295.453,138.13 287.55,135.33 281.19,129.73C275.013,124.528 271.504,116.805 271.65,108.73C271.65,99.857 275.003,92.8 281.71,87.56C288.417,82.32 297.37,79.693 308.57,79.68C318.13,79.68 326.003,81.43 332.19,84.93L332.19,81.25C332.227,75.746 329.782,70.507 325.54,67C321.284,63.16 315.732,61.063 310,61.13C301.007,61.13 293.89,64.923 288.65,72.51L274.47,63.58C282.27,52.38 293.813,46.78 309.1,46.78ZM288.27,109.08C288.248,113.234 290.24,117.151 293.61,119.58C297.17,122.38 301.591,123.865 306.12,123.78C312.911,123.769 319.428,121.063 324.23,116.26C329.563,111.24 332.23,105.35 332.23,98.59C327.21,94.59 320.21,92.59 311.23,92.59C304.69,92.59 299.237,94.167 294.87,97.32C290.46,100.52 288.27,104.41 288.27,109.08Z" style="fill:rgb(95,99,104);fill-rule:nonzero;"/>
    <path d="M436,49.58L382.24,173.13L365.62,173.13L385.57,129.9L350.22,49.58L367.72,49.58L393.27,111.18L393.62,111.18L418.47,49.58L436,49.58Z" style="fill:rgb(95,99,104);fill-rule:nonzero;"/>
    <path d="M141.14,73.64C141.146,68.734 140.731,63.836 139.9,59L72,59L72,86.73L110.89,86.73C109.283,95.676 104.084,103.586 96.51,108.61L96.51,126.61L119.72,126.61C133.31,114.08 141.14,95.55 141.14,73.64Z" style="fill:rgb(66,133,244);fill-rule:nonzero;"/>
    <path d="M72,144C91.43,144 107.79,137.62 119.72,126.62L96.51,108.62C90.05,113 81.73,115.5 72,115.5C53.22,115.5 37.28,102.84 31.58,85.78L7.67,85.78L7.67,104.33C19.873,128.612 44.824,143.999 72,144Z" style="fill:rgb(52,168,83);fill-rule:nonzero;"/>
    <path d="M31.58,85.78C28.567,76.842 28.567,67.158 31.58,58.22L31.58,39.67L7.67,39.67C-2.544,59.996 -2.544,84.004 7.67,104.33L31.58,85.78Z" style="fill:rgb(251,188,4);fill-rule:nonzero;"/>
    <path d="M72,28.5C82.264,28.332 92.192,32.214 99.62,39.3L120.17,18.75C107.144,6.515 89.87,-0.209 72,0C44.824,0.001 19.873,15.388 7.67,39.67L31.58,58.22C37.28,41.16 53.22,28.5 72,28.5Z" style="fill:rgb(234,67,53);fill-rule:nonzero;"/>
</svg>
