<?xml version="1.0" encoding="UTF-8" standalone="no"?>
<!DOCTYPE svg PUBLIC "-//W3C//DTD SVG 1.1//EN" "http://www.w3.org/Graphics/SVG/1.1/DTD/svg11.dtd">
<svg width="100%" height="100%" viewBox="0 0 44 26" version="1.1" xmlns="http://www.w3.org/2000/svg" xmlns:xlink="http://www.w3.org/1999/xlink" xml:space="preserve" xmlns:serif="http://www.serif.com/" style="fill-rule:evenodd;clip-rule:evenodd;stroke-linejoin:round;stroke-miterlimit:2;">
    <g transform="matrix(1,0,0,1,-1.967,-153.344)">
        <g id="g10305" transform="matrix(0.145458,0,0,0.145458,1.68088,153.072)">
            <path id="path2268" d="M298.032,90.5C298.046,139.436 258.386,179.114 209.45,179.127C160.513,179.139 120.836,139.481 120.823,90.545L120.823,90.5C120.81,41.565 160.47,1.885 209.404,1.872C258.341,1.859 298.019,41.519 298.032,90.455L298.032,90.5Z" style="fill:rgb(255,153,0);fill-rule:nonzero;"/>
            <path id="path1350" d="M90.001,1.895C41.355,2.204 1.967,41.781 1.967,90.5C1.967,139.409 41.662,179.104 90.572,179.104C113.527,179.104 134.451,170.356 150.196,156.018C150.195,156.018 150.193,156.016 150.189,156.014L150.208,156.014C153.432,153.076 156.439,149.906 159.203,146.526L141.05,146.526C138.626,143.598 136.423,140.547 134.444,137.399L165.752,137.399C167.656,134.352 169.38,131.188 170.91,127.911L129.275,127.911C127.856,124.869 126.624,121.758 125.572,118.602L174.617,118.602C177.573,109.77 179.177,100.321 179.177,90.499C179.177,83.987 178.471,77.638 177.135,71.525L122.971,71.525C123.642,68.379 124.489,65.271 125.499,62.217L174.562,62.217C173.465,58.967 172.191,55.8 170.742,52.73L129.27,52.73C130.766,49.534 132.461,46.425 134.354,43.423L165.639,43.423C163.557,40.106 161.253,36.937 158.762,33.935L141.319,33.935C144.016,30.761 146.985,27.772 150.208,24.985C134.462,10.645 113.532,1.895 90.572,1.895C90.381,1.895 90.192,1.894 90.001,1.895Z" style="fill:rgb(204,0,0);fill-rule:nonzero;"/>
            <path id="use9412" d="M289.143,136.82C289.625,136.82 290.094,136.945 290.552,137.191C291.012,137.437 291.366,137.792 291.622,138.253C291.878,138.709 292.006,139.19 292.006,139.688C292.006,140.18 291.879,140.656 291.627,141.112C291.376,141.567 291.022,141.922 290.566,142.175C290.115,142.424 289.638,142.55 289.142,142.55C288.646,142.55 288.17,142.424 287.716,142.175C287.261,141.921 286.909,141.568 286.653,141.112C286.401,140.656 286.276,140.18 286.276,139.688C286.276,139.19 286.403,138.709 286.66,138.253C286.918,137.792 287.274,137.44 287.731,137.191C288.193,136.945 288.662,136.82 289.143,136.82M289.143,137.295C288.742,137.295 288.35,137.399 287.967,137.606C287.587,137.813 287.29,138.106 287.076,138.494C286.859,138.876 286.751,139.272 286.751,139.688C286.751,140.1 286.857,140.498 287.066,140.876C287.28,141.253 287.576,141.549 287.954,141.761C288.335,141.972 288.73,142.076 289.142,142.076C289.556,142.076 289.952,141.972 290.331,141.761C290.709,141.549 291.004,141.253 291.215,140.876C291.424,140.498 291.528,140.101 291.528,139.688C291.528,139.272 291.422,138.875 291.207,138.494C290.994,138.106 290.696,137.813 290.313,137.606C289.934,137.398 289.544,137.295 289.143,137.295M287.887,141.27L287.887,138.188L288.949,138.188C289.309,138.188 289.571,138.216 289.733,138.276C289.895,138.333 290.024,138.43 290.121,138.573C290.216,138.714 290.265,138.864 290.265,139.024C290.265,139.25 290.185,139.446 290.023,139.612C289.865,139.778 289.65,139.873 289.384,139.893C289.493,139.938 289.58,139.995 289.648,140.057C289.773,140.177 289.923,140.38 290.103,140.667L290.478,141.27L289.872,141.27L289.6,140.785C289.385,140.403 289.212,140.165 289.079,140.067C288.988,139.998 288.855,139.962 288.682,139.962L288.389,139.962L288.389,141.273L287.889,141.273M288.385,139.535L288.989,139.535C289.277,139.535 289.472,139.491 289.577,139.406C289.683,139.318 289.736,139.206 289.736,139.064C289.736,138.972 289.712,138.89 289.661,138.82C289.609,138.747 289.539,138.695 289.448,138.658C289.359,138.623 289.193,138.603 288.951,138.603L288.387,138.603L288.387,139.535" style="fill:rgb(252,179,64);fill-rule:nonzero;"/>
        </g>
        <g id="g16480" transform="matrix(0.145458,0,0,0.145458,1.68088,153.072)">
            <g id="g13802" transform="matrix(1,0,0,1,-13.744,15.9939)">
                <path id="path13804" d="M133.719,99.926L134.899,91.906C134.254,91.906 133.306,92.185 132.468,92.185C129.184,92.185 128.774,90.43 129.032,89.148L132.268,73.018L137.26,73.018L138.289,63.915L133.584,63.915L134.542,58.399L124.7,58.399C124.492,58.607 119.132,89.421 119.132,93.175C119.132,98.73 122.25,101.202 126.648,101.163C130.09,101.134 132.773,100.181 133.719,99.926Z" style="fill:rgb(0,0,102);fill-rule:nonzero;"/>
                <path id="path13806" d="M136.706,84.638C136.706,97.97 145.505,101.137 153.003,101.137C159.924,101.137 163.553,99.533 163.553,99.533L165.215,90.433C165.215,90.433 159.367,92.811 154.614,92.811C144.483,92.811 146.259,85.257 146.259,85.257L165.722,85.316C165.722,85.316 166.961,79.205 166.961,76.714C166.961,70.497 163.574,62.865 153.216,62.865C143.73,62.867 136.706,73.088 136.706,84.638ZM153.252,71.313C158.576,71.313 157.594,77.297 157.594,77.782L147.12,77.782C147.12,77.162 148.109,71.313 153.252,71.313Z" style="fill:rgb(0,0,102);fill-rule:nonzero;"/>
                <path id="path13808" d="M212.99,99.923L214.679,89.639C214.679,89.639 210.047,91.96 206.872,91.96C200.179,91.96 197.494,86.85 197.494,81.359C197.494,70.222 203.252,64.094 209.662,64.094C214.47,64.094 218.327,66.793 218.327,66.793L219.867,56.8C219.867,56.8 215.313,53.511 210.411,53.492C195.666,53.434 187.229,63.7 187.229,81.447C187.229,93.21 193.477,101.215 204.735,101.215C207.918,101.215 212.99,99.923 212.99,99.923Z" style="fill:rgb(0,0,102);fill-rule:nonzero;"/>
                <path id="path13810" d="M81.83,63.012C75.361,63.012 70.403,65.091 70.403,65.091L69.033,73.218C69.033,73.218 73.126,71.555 79.314,71.555C82.827,71.555 85.397,71.95 85.397,74.805C85.397,76.539 85.083,77.179 85.083,77.179C85.083,77.179 82.311,76.948 81.027,76.948C71.817,76.948 64.298,80.43 64.298,90.928C64.298,99.201 69.921,101.098 73.406,101.098C80.063,101.098 82.698,96.895 82.85,96.883L82.773,100.371L91.08,100.371L94.786,74.391C94.786,63.366 85.17,63.012 81.83,63.012ZM83.268,84.108C83.449,85.694 82.858,93.194 77.176,93.194C74.246,93.194 73.485,90.954 73.485,89.632C73.485,87.048 74.888,83.949 81.8,83.949C83.41,83.949 82.997,84.065 83.268,84.108Z" style="fill:rgb(0,0,102);fill-rule:nonzero;"/>
                <path id="path13812" d="M103.615,100.906C105.74,100.906 117.887,101.447 117.887,88.912C117.887,77.191 106.643,79.508 106.643,74.798C106.643,72.456 108.476,71.718 111.827,71.718C113.156,71.718 118.274,72.141 118.274,72.141L119.463,63.811C119.463,63.812 116.151,63.07 110.759,63.07C103.78,63.07 96.696,65.856 96.696,75.388C96.696,86.19 108.508,85.105 108.508,89.655C108.508,92.692 105.208,92.942 102.664,92.942C98.263,92.942 94.301,91.431 94.287,91.504L93.028,99.749C93.257,99.819 95.702,100.906 103.615,100.906Z" style="fill:rgb(0,0,102);fill-rule:nonzero;"/>
                <path id="path13814" d="M290.807,55.455L289.102,68.164C289.102,68.164 285.549,63.259 279.99,63.259C269.531,63.259 264.141,73.682 264.141,85.655C264.141,93.385 267.985,100.962 275.84,100.962C281.491,100.962 284.624,97.021 284.624,97.021L284.209,100.386L293.387,100.386L300.594,55.524L290.807,55.455ZM286.755,80.156C286.755,85.139 284.287,91.796 279.174,91.796C275.778,91.796 274.186,88.945 274.186,84.472C274.186,77.157 277.471,72.332 281.618,72.332C285.012,72.332 286.755,74.662 286.755,80.156Z" style="fill:rgb(0,0,102);fill-rule:nonzero;"/>
                <path id="path13816" d="M30.749,100.423L36.492,66.553L37.336,100.423L43.835,100.423L55.96,66.553L50.589,100.423L60.247,100.423L67.684,55.501L52.342,55.384L43.216,82.888L42.966,55.501L28.906,55.501L21.362,100.423L30.749,100.423Z" style="fill:rgb(0,0,102);fill-rule:nonzero;"/>
                <path id="path13818" d="M176.101,100.487C178.847,84.872 179.825,72.54 187.833,75.094C188.983,69.05 191.724,63.794 192.976,61.236C192.976,61.236 192.58,60.647 190.105,60.647C185.88,60.647 180.239,69.221 180.239,69.221L181.082,63.92L172.296,63.92L166.412,100.486L176.101,100.486L176.101,100.487Z" style="fill:rgb(0,0,102);fill-rule:nonzero;"/>
                <g id="use14699" transform="matrix(1,0,0,1,845.3,0)">
                    <path id="path13810_1_" d="M-612.55,63.012C-619.022,63.012 -623.98,65.091 -623.98,65.091L-625.349,73.218C-625.349,73.218 -621.254,71.555 -615.069,71.555C-611.555,71.555 -608.986,71.95 -608.986,74.805C-608.986,76.539 -609.299,77.179 -609.299,77.179C-609.299,77.179 -612.07,76.948 -613.354,76.948C-622.565,76.948 -630.083,80.43 -630.083,90.928C-630.083,99.201 -624.461,101.098 -620.976,101.098C-614.321,101.098 -611.684,96.895 -611.533,96.883L-611.611,100.371L-603.302,100.371L-599.597,74.391C-599.596,63.366 -609.212,63.012 -612.55,63.012ZM-611.114,84.108C-610.934,85.694 -611.525,93.194 -617.206,93.194C-620.138,93.194 -620.898,90.954 -620.898,89.632C-620.898,87.048 -619.496,83.949 -612.583,83.949C-610.972,83.949 -611.384,84.065 -611.114,84.108Z" style="fill:rgb(0,0,102);fill-rule:nonzero;"/>
                </g>
                <path id="use14701" d="M255.266,100.487C256.774,88.999 259.565,72.871 266.997,75.094C268.146,69.05 267.038,69.066 264.564,69.066C260.336,69.066 259.4,69.22 259.4,69.22L260.244,63.919L251.459,63.919L245.575,100.486L255.266,100.486L255.266,100.487Z" style="fill:rgb(0,0,102);fill-rule:nonzero;"/>
            </g>
            <g id="g10289">
                <path id="path4157" d="M122.434,113.059L123.615,105.04C122.97,105.04 122.021,105.316 121.184,105.316C117.9,105.316 117.538,103.57 117.747,102.279L120.4,85.917L125.391,85.917L126.596,77.047L121.89,77.047L122.848,71.531L113.414,71.531C113.206,71.739 107.845,102.554 107.845,106.306C107.845,111.861 110.964,114.335 115.362,114.295C118.806,114.266 121.488,113.313 122.434,113.059Z" style="fill:white;fill-rule:nonzero;"/>
                <path id="path4155" d="M125.423,97.77C125.423,111.102 134.223,114.27 141.72,114.27C148.64,114.27 151.685,112.723 151.685,112.723L153.347,103.624C153.347,103.624 148.083,105.943 143.329,105.943C133.199,105.943 134.973,98.39 134.973,98.39L154.145,98.39C154.145,98.39 155.383,92.277 155.383,89.786C155.383,83.57 152.289,75.996 141.931,75.996C132.445,75.998 125.423,86.219 125.423,97.77ZM141.967,84.445C147.291,84.445 146.309,90.428 146.309,90.912L135.835,90.912C135.835,90.294 136.825,84.445 141.967,84.445Z" style="fill:white;fill-rule:nonzero;"/>
                <path id="path4151" d="M201.707,113.055L203.395,102.77C203.395,102.77 198.766,105.091 195.589,105.091C188.897,105.091 186.213,99.981 186.213,94.491C186.213,83.354 191.971,77.227 198.381,77.227C203.188,77.227 207.046,79.926 207.046,79.926L208.586,69.933C208.586,69.933 202.865,67.618 197.961,67.618C187.07,67.618 176.475,77.066 176.475,94.81C176.475,106.576 182.196,114.347 193.454,114.347C196.637,114.348 201.707,113.055 201.707,113.055Z" style="fill:white;fill-rule:nonzero;"/>
                <path id="path4149" d="M70.547,76.143C64.078,76.143 59.119,78.222 59.119,78.222L57.75,86.349C57.75,86.349 61.843,84.686 68.03,84.686C71.543,84.686 74.113,85.081 74.113,87.936C74.113,89.67 73.798,90.31 73.798,90.31C73.798,90.31 71.027,90.078 69.744,90.078C61.585,90.078 53.014,93.56 53.014,104.058C53.014,112.33 58.637,114.228 62.122,114.228C68.778,114.228 71.647,109.909 71.8,109.896L71.489,113.501L79.796,113.501L83.502,87.52C83.502,76.498 73.887,76.143 70.547,76.143ZM72.568,97.297C72.748,98.884 71.573,106.323 65.893,106.323C62.963,106.323 62.201,104.085 62.201,102.761C62.201,100.179 63.604,97.079 70.517,97.079C72.125,97.081 72.297,97.253 72.568,97.297Z" style="fill:white;fill-rule:nonzero;"/>
                <path id="path4145" d="M92.331,114.038C94.456,114.038 106.604,114.578 106.604,102.043C106.604,90.324 95.359,92.639 95.359,87.931C95.359,85.587 97.192,84.849 100.542,84.849C101.872,84.849 106.989,85.272 106.989,85.272L108.179,76.942C108.179,76.943 104.867,76.201 99.475,76.201C92.496,76.201 85.412,78.987 85.412,88.519C85.412,99.32 97.224,98.236 97.224,102.786C97.224,105.823 93.924,106.07 91.381,106.07C86.98,106.07 83.017,104.56 83.003,104.632L81.745,112.878C81.973,112.948 84.417,114.038 92.331,114.038Z" style="fill:white;fill-rule:nonzero;"/>
                <path id="path4139" d="M279.852,68.668L277.817,81.295C277.817,81.295 274.266,76.39 268.707,76.39C260.063,76.39 252.858,86.812 252.858,98.787C252.858,106.517 256.701,114.091 264.557,114.091C270.208,114.091 273.341,110.151 273.341,110.151L272.926,113.516L282.102,113.516L289.309,68.653L279.852,68.668ZM275.471,93.288C275.471,98.271 273.004,104.927 267.889,104.927C264.494,104.927 262.903,102.077 262.903,97.604C262.903,90.29 266.188,85.464 270.333,85.464C273.729,85.463 275.471,87.796 275.471,93.288Z" style="fill:white;fill-rule:nonzero;"/>
                <path id="path4133" d="M19.466,113.555L25.209,79.685L26.052,113.555L32.552,113.555L44.677,79.685L39.306,113.555L48.964,113.555L56.402,68.632L41.467,68.632L32.166,96.195L31.682,68.632L17.915,68.632L10.37,113.555L19.466,113.555Z" style="fill:white;fill-rule:nonzero;"/>
                <path id="path4131" d="M164.818,113.617C167.564,98.001 168.073,85.321 174.626,87.642C175.773,81.598 176.88,79.26 178.132,76.702C178.132,76.702 177.545,76.579 176.313,76.579C172.088,76.579 168.958,82.351 168.958,82.351L169.799,77.05L161.015,77.05L155.13,113.617L164.818,113.617Z" style="fill:white;fill-rule:nonzero;"/>
                <g id="use8523" transform="matrix(1,0,0,1,847.006,0)">
                    <path id="path4149_1_" d="M-623.531,76.143C-630,76.143 -634.959,78.222 -634.959,78.222L-636.327,86.349C-636.327,86.349 -632.234,84.686 -626.047,84.686C-622.534,84.686 -619.966,85.081 -619.966,87.936C-619.966,89.67 -620.279,90.31 -620.279,90.31C-620.279,90.31 -623.05,90.078 -624.334,90.078C-632.492,90.078 -641.063,93.56 -641.063,104.058C-641.063,112.33 -635.441,114.228 -631.956,114.228C-625.3,114.228 -622.431,109.909 -622.279,109.896L-622.588,113.501L-614.281,113.501L-610.576,87.52C-610.575,76.498 -620.191,76.143 -623.531,76.143ZM-621.507,97.297C-621.327,98.884 -622.503,106.323 -628.185,106.323C-631.115,106.323 -631.875,104.085 -631.875,102.761C-631.875,100.179 -630.472,97.079 -623.56,97.079C-621.952,97.081 -621.781,97.253 -621.507,97.297Z" style="fill:white;fill-rule:nonzero;"/>
                </g>
                <g id="use8525" transform="matrix(1,0,0,1,442.286,0)">
                    <path id="path4131_1_" d="M-198.263,113.617C-195.516,98.001 -195.007,85.321 -188.456,87.642C-187.307,81.598 -186.199,79.26 -184.948,76.702C-184.948,76.702 -185.535,76.579 -186.767,76.579C-190.992,76.579 -194.122,82.351 -194.122,82.351L-193.281,77.05L-202.065,77.05L-207.95,113.617L-198.263,113.617Z" style="fill:white;fill-rule:nonzero;"/>
                </g>
                <path id="text9407" d="M289.105,107.975C289.584,107.975 290.056,108.098 290.511,108.348C290.97,108.59 291.327,108.946 291.583,109.407C291.84,109.865 291.966,110.342 291.966,110.841C291.966,111.334 291.84,111.81 291.587,112.265C291.336,112.72 290.983,113.077 290.528,113.328C290.074,113.578 289.598,113.704 289.104,113.704C288.606,113.704 288.13,113.578 287.675,113.328C287.221,113.075 286.869,112.72 286.617,112.265C286.361,111.81 286.236,111.334 286.236,110.841C286.236,110.342 286.363,109.865 286.62,109.407C286.878,108.946 287.236,108.592 287.693,108.348C288.154,108.098 288.626,107.975 289.105,107.975M289.105,108.447C288.704,108.447 288.312,108.551 287.929,108.76C287.547,108.964 287.25,109.259 287.035,109.645C286.821,110.026 286.713,110.425 286.713,110.839C286.713,111.253 286.817,111.649 287.026,112.027C287.239,112.404 287.535,112.7 287.917,112.913C288.295,113.121 288.69,113.226 289.105,113.226C289.517,113.226 289.915,113.121 290.293,112.913C290.671,112.7 290.967,112.404 291.177,112.027C291.388,111.646 291.491,111.253 291.491,110.839C291.491,110.425 291.384,110.026 291.17,109.645C290.957,109.259 290.66,108.964 290.276,108.76C289.896,108.552 289.507,108.447 289.105,108.447M287.85,112.423L287.85,109.34L288.911,109.34C289.272,109.34 289.536,109.369 289.696,109.428C289.858,109.483 289.985,109.582 290.084,109.725C290.181,109.867 290.23,110.016 290.23,110.176C290.23,110.401 290.148,110.598 289.986,110.764C289.828,110.93 289.615,111.026 289.349,111.044C289.455,111.09 289.543,111.145 289.611,111.207C289.734,111.329 289.886,111.533 290.066,111.818L290.443,112.422L289.834,112.422L289.563,111.937C289.347,111.554 289.174,111.316 289.042,111.219C288.951,111.148 288.818,111.113 288.643,111.113L288.352,111.113L288.352,112.424L287.85,112.423M288.348,110.688L288.952,110.688C289.241,110.688 289.436,110.645 289.54,110.559C289.645,110.475 289.7,110.36 289.7,110.217C289.7,110.126 289.675,110.044 289.625,109.975C289.574,109.901 289.503,109.848 289.412,109.811C289.321,109.776 289.158,109.758 288.914,109.758L288.349,109.758L288.349,110.688" style="fill:white;fill-rule:nonzero;"/>
            </g>
        </g>
    </g>
</svg>
