<?xml version="1.0" encoding="UTF-8" standalone="no"?>
<!DOCTYPE svg PUBLIC "-//W3C//DTD SVG 1.1//EN" "http://www.w3.org/Graphics/SVG/1.1/DTD/svg11.dtd">
<svg width="100%" height="100%" viewBox="0 0 136 135" version="1.1" xmlns="http://www.w3.org/2000/svg" xmlns:xlink="http://www.w3.org/1999/xlink" xml:space="preserve" xmlns:serif="http://www.serif.com/" style="fill-rule:evenodd;clip-rule:evenodd;stroke-linejoin:round;stroke-miterlimit:2;">
    <g transform="matrix(0.693878,0,0,0.703125,0,0)">
        <g transform="matrix(1.44118,0,0,1.42222,0,0)">
            <rect x="43" y="1" width="50" height="37" style="fill:rgb(40,40,40);"/>
        </g>
    </g>
    <g transform="matrix(0.693878,0,0,0.703125,0,0)">
        <g transform="matrix(1.44118,0,0,1.44144,0,-2.59459)">
            <rect x="1" y="61" width="42" height="74" style="fill:rgb(40,40,40);"/>
        </g>
    </g>
    <g transform="matrix(0.693878,0,0,0.703125,0,0)">
        <g transform="matrix(1.44118,0,0,1.44144,132.588,-2.59459)">
            <rect x="1" y="61" width="42" height="74" style="fill:rgb(40,40,40);"/>
        </g>
    </g>
    <g transform="matrix(0.693878,0,0,0.703125,0,0)">
        <g transform="matrix(1.52765,0,0,1.42222,-5.15941,0)">
            <rect x="43" y="98" width="50" height="37" style="fill:rgb(40,40,40);"/>
        </g>
    </g>
    <g transform="matrix(0.693878,0,0,0.703125,0,0)">
        <g transform="matrix(1.44118,0,0,1.42222,0,0)">
            <rect x="43" y="0" width="50" height="1" style="fill:rgb(148,148,148);"/>
        </g>
    </g>
    <g transform="matrix(0.693878,0,0,0.703125,0,0)">
        <g transform="matrix(1.44118,0,0,1.42222,0,0)">
            <rect x="0" y="60" width="1" height="75" style="fill:rgb(148,148,148);"/>
        </g>
    </g>
    <g transform="matrix(0.693878,0,0,0.703125,0,0)">
        <g transform="matrix(1.44118,0,0,1.42222,0,0)">
            <rect x="43" y="97" width="50" height="1" style="fill:rgb(148,148,148);"/>
        </g>
    </g>
    <g transform="matrix(0.693878,0,0,0.703125,0,0)">
        <g transform="matrix(1.44118,0,0,1.42222,0,0)">
            <rect x="135" y="60" width="1" height="75" style="fill:rgb(148,148,148);"/>
        </g>
    </g>
</svg>
