<?xml version="1.0" encoding="UTF-8" standalone="no"?>
<!DOCTYPE svg PUBLIC "-//W3C//DTD SVG 1.1//EN" "http://www.w3.org/Graphics/SVG/1.1/DTD/svg11.dtd">
<svg width="100%" height="100%" viewBox="0 0 384 448" version="1.1" xmlns="http://www.w3.org/2000/svg" xmlns:xlink="http://www.w3.org/1999/xlink" xml:space="preserve" xmlns:serif="http://www.serif.com/" style="fill-rule:evenodd;clip-rule:evenodd;stroke-linejoin:round;stroke-miterlimit:2;">
    <g transform="matrix(1,0,0,1,0,-0.0002)">
        <g transform="matrix(1,0,0,1,0,-32.0148)">
            <path d="M191.994,245.34C133.179,245.34 85.329,197.494 85.329,138.679C85.329,79.865 133.179,32.015 191.994,32.015C250.809,32.015 298.659,79.865 298.659,138.679C298.659,197.494 250.809,245.34 191.994,245.34ZM191.994,64.014C150.823,64.014 117.328,97.505 117.328,138.679C117.328,179.85 150.823,213.341 191.994,213.341C233.165,213.341 266.66,179.85 266.66,138.679C266.66,97.505 233.165,64.014 191.994,64.014Z" style="fill:rgb(100,100,100);fill-rule:nonzero;"/>
        </g>
        <g transform="matrix(1,0,0,1,0,-32.0148)">
            <path d="M367.989,480.001L16,480.001C7.168,480.001 0,472.833 0,464.001L0,389.336C0,333.466 45.46,288.007 101.329,288.007L282.659,288.007C338.528,288.007 383.988,333.466 383.988,389.336L383.988,464.001C383.988,472.833 376.82,480.001 367.989,480.001ZM31.999,448.002L351.989,448.002L351.989,389.336C351.989,351.11 320.885,320.006 282.659,320.006L101.329,320.006C63.103,320.006 31.999,351.11 31.999,389.336L31.999,448.002Z" style="fill:rgb(100,100,100);fill-rule:nonzero;"/>
        </g>
    </g>
</svg>
